Anarchie-Italic.sfdir
StartChar: quotesingle
Encoding: 39 39 42
Width: 155
VWidth: 0
Flags: HMW
LayerCount: 2
Fore
SplineSet
208 764 m 1
 307 772 l 1
 262 600 l 1
 164 597 l 1
 208 764 l 1
EndSplineSet
Validated: 1
EndChar
StartChar: comma
Encoding: 44 44 47
Width: 314
VWidth: 0
Flags: HMW
LayerCount: 2
Fore
SplineSet
156 110 m 5
 308 90 l 1
 143 -112 l 1
 5 -92 l 1
 156 110 l 5
EndSplineSet
Validated: 1
EndChar
StartChar: one
Encoding: 49 49 50
Width: 367
VWidth: 0
Flags: HMW
LayerCount: 2
Fore
SplineSet
159 594 m 1
 321 745 l 5
 494 760 l 5
 350 22 l 1
 210 25 l 1
 328 611 l 1
 220 526 l 1
 159 594 l 1
EndSplineSet
Validated: 1
EndChar
StartChar: nine
Encoding: 57 57 58
Width: 548
VWidth: 0
Flags: HMW
LayerCount: 2
Fore
SplineSet
334 755 m 1
 585 761 l 1
 658 570 l 1
 591 380 l 1
 117 31 l 1
 49 116 l 1
 420 403 l 1
 276 412 l 1
 241 591 l 1
 334 755 l 1
EndSplineSet
Validated: 1
EndChar
StartChar: B
Encoding: 66 66 1
Width: 456
VWidth: 0
Flags: HMW
LayerCount: 2
Fore
SplineSet
242 714 m 1
 410 780 l 1
 585 681 l 1
 547 489 l 1
 358 399 l 1
 472 372 l 1
 473 183 l 1
 369 48 l 1
 22 0 l 1
 242 714 l 1
EndSplineSet
Validated: 1
EndChar
StartChar: H
Encoding: 72 72 7
Width: 595
VWidth: 0
Flags: HMW
LayerCount: 2
Fore
SplineSet
268 777 m 1
 400 750 l 1
 349 426 l 1
 513 420 l 1
 606 771 l 1
 747 759 l 1
 565 21 l 1
 404 0 l 1
 460 258 l 1
 277 267 l 1
 188 15 l 1
 30 36 l 1
 268 777 l 1
EndSplineSet
Validated: 1
EndChar
StartChar: J
Encoding: 74 74 9
Width: 546
VWidth: 0
Flags: HMW
LayerCount: 2
Fore
SplineSet
564 774 m 1
 700 765 l 1
 536 96 l 1
 247 0 l 1
 70 210 l 1
 209 273 l 1
 289 156 l 1
 402 192 l 1
 564 774 l 1
EndSplineSet
Validated: 1
EndChar
StartChar: S
Encoding: 83 83 18
Width: 549
VWidth: 0
Flags: HMW
LayerCount: 2
Fore
SplineSet
658 722 m 5
 606 616 l 5
 457 622 l 5
 329 571 l 5
 331 464 l 5
 536 422 l 5
 597 305 l 5
 527 76 l 5
 320 2 l 5
 36 59 l 5
 98 209 l 5
 240 173 l 5
 354 185 l 5
 409 296 l 5
 211 374 l 5
 159 548 l 5
 304 722 l 5
 493 767 l 5
 658 722 l 5
EndSplineSet
Validated: 1
EndChar
StartChar: U
Encoding: 85 85 20
Width: 504
VWidth: 0
Flags: HMW
LayerCount: 2
Fore
SplineSet
219 756 m 1
 351 753 l 1
 219 267 l 1
 280 171 l 1
 381 216 l 1
 515 729 l 1
 653 744 l 1
 508 163 l 1
 378 30 l 1
 154 60 l 1
 72 216 l 1
 219 756 l 1
EndSplineSet
Validated: 1
EndChar
StartChar: X
Encoding: 88 88 23
Width: 647
VWidth: 0
Flags: HMW
LayerCount: 2
Fore
SplineSet
188 717 m 1
 347 747 l 1
 434 486 l 1
 619 729 l 1
 790 714 l 1
 517 360 l 1
 593 42 l 1
 453 -18 l 1
 361 216 l 1
 202 0 l 1
 60 87 l 1
 280 366 l 1
 188 717 l 1
EndSplineSet
Validated: 1
EndChar
StartChar: f
Encoding: 102 102 117
Width: 422
VWidth: 0
Flags: HMW
LayerCount: 2
Fore
SplineSet
25 15 m 1
 227 721 l 1
 559 776 l 1
 547 636 l 1
 330 621 l 1
 290 445 l 1
 432 469 l 1
 417 363 l 1
 258 334 l 1
 175 38 l 1
 25 15 l 1
EndSplineSet
Validated: 1
EndChar
StartChar: h
Encoding: 104 104 119
Width: 517
VWidth: 0
Flags: HMW
LayerCount: 2
Fore
SplineSet
230 776 m 1
 341 750 l 1
 293 375 l 1
 417 381 l 1
 549 776 l 1
 672 776 l 1
 492 16 l 5
 370 10 l 5
 386 261 l 1
 253 255 l 1
 164 4 l 5
 22 -2 l 5
 230 776 l 1
EndSplineSet
Validated: 1
EndChar
StartChar: l
Encoding: 108 108 123
Width: 405
VWidth: 0
Flags: HMW
LayerCount: 2
Fore
SplineSet
206 765 m 1
 336 744 l 1
 206 174 l 1
 419 154 l 5
 382 29 l 1
 26 12 l 1
 206 765 l 1
EndSplineSet
Validated: 1
EndChar
StartChar: x
Encoding: 120 120 132
Width: 630
VWidth: 0
Flags: HMW
LayerCount: 2
Fore
SplineSet
200 773 m 1
 371 788 l 1
 413 486 l 1
 641 788 l 1
 783 759 l 1
 489 372 l 1
 571 50 l 1
 418 0 l 1
 362 295 l 5
 192 0 l 1
 60 85 l 1
 278 419 l 1
 200 773 l 1
EndSplineSet
Validated: 1
EndChar
StartChar: z
Encoding: 122 122 134
Width: 578
VWidth: 0
Flags: HMW
LayerCount: 2
Fore
SplineSet
232 753 m 5
 726 738 l 5
 663 542 l 5
 271 164 l 5
 575 149 l 5
 532 0 l 5
 28 26 l 5
 94 208 l 5
 490 580 l 5
 222 598 l 5
 232 753 l 5
EndSplineSet
Validated: 1
EndChar
StartChar: bar
Encoding: 124 124 73
Width: 174
VWidth: 0
Flags: HMW
LayerCount: 2
Fore
SplineSet
196 755 m 1
 307 764 l 1
 155 14 l 5
 37 20 l 5
 196 755 l 1
EndSplineSet
Validated: 1
EndChar
StartChar: asciitilde
Encoding: 126 126 74
Width: 496
VWidth: 0
Flags: HMW
LayerCount: 2
Fore
SplineSet
113 380 m 1
 270 477 l 1
 400 392 l 1
 519 462 l 1
 563 397 l 1
 385 277 l 1
 250 365 l 1
 117 295 l 1
 113 380 l 1
EndSplineSet
Validated: 1
EndChar
StartChar: brokenbar
Encoding: 166 166 106
Width: 148
VWidth: 0
Flags: HMW
LayerCount: 2
Fore
SplineSet
205 749 m 1
 289 770 l 1
 215 436 l 1
 127 424 l 1
 205 749 l 1
116 377 m 1
 212 371 l 1
 212 371 117 37 116 34 c 0
 115 31 29 25 29 25 c 1
 116 377 l 1
EndSplineSet
Validated: 1
EndChar
StartChar: Icircumflex
Encoding: 206 206 92
Width: 247
VWidth: 0
Flags: HMW
LayerCount: 2
Fore
SplineSet
231 750 m 1
 351 738 l 1
 199 18 l 1
 49 12 l 1
 231 750 l 1
209 812 m 1
 339 873 l 1
 412 809 l 1
 349 779 l 1
 304 796 l 5
 231 760 l 1
 209 812 l 1
EndSplineSet
Validated: 1
EndChar
StartChar: Odieresis
Encoding: 214 214 95
Width: 566
VWidth: 0
Flags: HMW
LayerCount: 2
Fore
SplineSet
521 787 m 1
 652 746 l 1
 648 450 l 1
 528 110 l 1
 353 20 l 1
 180 46 l 1
 76 233 l 1
 177 594 l 1
 333 764 l 1
 521 787 l 1
465 871 m 5
 505 868 l 5
 485 806 l 5
 436 809 l 5
 465 871 l 5
541 859 m 5
 596 859 l 5
 590 806 l 5
 534 803 l 5
 541 859 l 5
EndSplineSet
Validated: 1
EndChar
StartChar: ccedilla
Encoding: 231 231 140
Width: 560
VWidth: 0
Flags: HMW
LayerCount: 2
Fore
SplineSet
669 694 m 1
 587 595 l 1
 488 645 l 1
 384 642 l 1
 258 410 l 1
 274 152 l 1
 423 149 l 1
 497 217 l 1
 582 190 l 1
 501 32 l 1
 331 0 l 5
 260 -110 l 1
 147 -99 l 1
 235 18 l 1
 105 78 l 1
 130 466 l 1
 344 771 l 1
 542 765 l 1
 669 694 l 1
EndSplineSet
Validated: 1
EndChar
StartChar: egrave
Encoding: 232 232 141
Width: 384
VWidth: 0
Flags: HMW
LayerCount: 2
Fore
SplineSet
217 755 m 1
 535 749 l 1
 493 617 l 1
 305 643 l 1
 295 495 l 1
 392 457 l 1
 374 392 l 1
 254 395 l 1
 177 146 l 1
 387 108 l 1
 359 0 l 1
 28 26 l 1
 217 755 l 1
357 882 m 1
 473 832 l 1
 415 770 l 5
 289 837 l 1
 357 882 l 1
EndSplineSet
Validated: 1
EndChar
StartChar: icircumflex
Encoding: 238 238 146
Width: 223
VWidth: 0
Flags: HMW
LayerCount: 2
Fore
SplineSet
235 767 m 5
 329 758 l 5
 184 38 l 1
 59 29 l 1
 235 767 l 5
205 793 m 5
 314 872 l 5
 387 805 l 5
 359 770 l 5
 313 813 l 5
 222 775 l 5
 205 793 l 5
EndSplineSet
Validated: 1
EndChar
StartChar: ocircumflex
Encoding: 244 244 149
Width: 572
VWidth: 0
Flags: HMW
LayerCount: 2
Fore
SplineSet
451 748 m 5
 647 664 l 1
 631 352 l 1
 545 82 l 1
 324 15 l 1
 127 108 l 1
 111 384 l 1
 244 679 l 1
 451 748 l 5
335 810 m 1
 484 874 l 1
 590 810 l 1
 537 760 l 1
 475 795 l 1
 350 751 l 1
 335 810 l 1
EndSplineSet
Validated: 1
EndChar
StartChar: odieresis
Encoding: 246 246 150
Width: 607
VWidth: 0
Flags: HMW
LayerCount: 2
Fore
SplineSet
473 772 m 1
 680 679 l 5
 676 396 l 1
 557 120 l 1
 349 18 l 1
 139 88 l 1
 118 416 l 1
 244 653 l 1
 473 772 l 1
401 852 m 1
 469 854 l 1
 450 796 l 1
 383 787 l 1
 401 852 l 1
507 852 m 1
 576 860 l 1
 533 790 l 1
 479 796 l 1
 507 852 l 1
EndSplineSet
Validated: 1
EndChar
StartChar: ugrave
Encoding: 249 249 151
Width: 513
VWidth: 0
Flags: HMW
LayerCount: 2
Fore
SplineSet
202 781 m 1
 316 764 l 1
 213 182 l 1
 278 123 l 1
 351 193 l 1
 578 784 l 1
 671 778 l 1
 465 97 l 1
 313 18 l 1
 140 44 l 1
 86 190 l 1
 202 781 l 1
411 878 m 5
 518 816 l 1
 454 755 l 1
 341 837 l 1
 411 878 l 5
EndSplineSet
Validated: 1
EndChar
StartChar: uni2011
Encoding: 8209 8209 157
Width: 330
VWidth: 0
Flags: HMW
LayerCount: 2
Fore
SplineSet
114 379 m 5
 385 382 l 5
 369 285 l 5
 91 279 l 5
 114 379 l 5
EndSplineSet
Validated: 1
EndChar
StartChar: figuredash
Encoding: 8210 8210 158
Width: 485
VWidth: 0
Flags: HMW
LayerCount: 2
Fore
SplineSet
123 388 m 5
 540 382 l 5
 527 297 l 5
 95 294 l 5
 123 388 l 5
EndSplineSet
Validated: 1
EndChar
StartChar: quoteright
Encoding: 8217 8217 163
Width: 253
VWidth: 0
Flags: HMW
LayerCount: 2
Fore
SplineSet
318 837 m 1
 416 816 l 1
 250 605 l 1
 174 644 l 1
 318 837 l 1
EndSplineSet
Validated: 1
EndChar
StartChar: Euro
Encoding: 8364 8364 186
Width: 654
VWidth: 0
Flags: HMW
LayerCount: 2
Fore
SplineSet
782 649 m 1
 686 576 l 1
 550 664 l 1
 394 579 l 1
 378 492 l 1
 540 488 l 1
 509 421 l 1
 365 422 l 1
 355 369 l 1
 498 374 l 1
 476 289 l 1
 339 285 l 1
 325 210 l 1
 486 157 l 1
 562 230 l 1
 670 228 l 1
 560 58 l 1
 321 25 l 1
 179 169 l 1
 205 281 l 1
 86 277 l 1
 121 362 l 1
 224 365 l 1
 238 423 l 1
 138 424 l 1
 181 497 l 1
 254 495 l 1
 285 626 l 1
 499 772 l 1
 652 758 l 1
 782 649 l 1
EndSplineSet
Validated: 1
EndChar
StartChar: arrowleft
Encoding: 8592 8592 182
Width: 771
VWidth: 0
Flags: HMW
LayerCount: 2
Fore
SplineSet
360 529 m 1
 354 438 l 1
 834 424 l 5
 810 280 l 1
 301 274 l 1
 275 173 l 1
 106 356 l 1
 360 529 l 1
EndSplineSet
Validated: 1
EndChar
StartChar: uni2384
Encoding: 9092 9092 187
Width: 625
VWidth: 0
Flags: HMW
LayerCount: 2
Fore
SplineSet
160 591 m 1
 567 567 l 1
 562 547 l 1
 703 496 l 1
 667 258 l 1
 465 110 l 1
 393 130 l 1
 49 127 l 1
 160 591 l 1
210 521 m 1
 133 193 l 1
 214 187 l 1
 275 457 l 1
 396 517 l 1
 210 521 l 1
546 484 m 1
 474 200 l 1
 606 304 l 1
 624 461 l 1
 546 484 l 1
410 206 m 1
 490 497 l 1
 340 429 l 1
 282 242 l 1
 410 206 l 1
EndSplineSet
Validated: 1
EndChar
